<?xml version="1.0" standalone="no"?>
<!DOCTYPE svg PUBLIC "-//W3C//DTD SVG 20010904//EN"
 "http://www.w3.org/TR/2001/REC-SVG-20010904/DTD/svg10.dtd">
<svg version="1.0" xmlns="http://www.w3.org/2000/svg"
 width="260.000000pt" height="260.000000pt" viewBox="0 0 260.000000 260.000000"
 preserveAspectRatio="xMidYMid meet">
<metadata>
Created by potrace 1.11, written by Peter Selinger 2001-2013
</metadata>
<g transform="translate(0.000000,260.000000) scale(0.100000,-0.100000)"
fill="#000000" stroke="none">
<path d="M0 1300 l0 -1300 1300 0 1300 0 0 1300 0 1300 -1300 0 -1300 0 0
-1300z m1790 340 l0 -140 -70 0 -70 0 0 -70 0 -70 -70 0 -70 0 0 -70 0 -70
-70 0 -70 0 0 -70 0 -70 -70 0 -70 0 0 -65 0 -65 280 0 280 0 0 -70 0 -70
-490 0 -491 0 3 138 3 137 67 3 67 3 3 67 3 67 67 3 67 3 3 67 3 67 68 3 67 3
0 64 0 65 70 0 70 0 0 70 0 70 -280 0 -280 0 0 70 0 70 490 0 490 0 0 -140z"/>
</g>
</svg>
